<svg width="64" height="64" viewBox="0 0 64 64" fill="none" xmlns="http://www.w3.org/2000/svg">
  <rect width="64" height="64" rx="12" fill="#000000"/>
  <g transform="translate(16, 16)">
    <path d="M12 7v14M3 18a1 1 0 0 1-1-1V4a1 1 0 0 1 1-1h5a4 4 0 0 1 4 4 4 4 0 0 1 4-4h5a1 1 0 0 1 1 1v13a1 1 0 0 1-1 1h-6a3 3 0 0 0-3 3 3 3 0 0 0-3-3z" 
          stroke="white" 
          stroke-width="2.5" 
          stroke-linecap="round" 
          stroke-linejoin="round" 
          fill="none"/>
  </g>
</svg>
